<mxfile host="65bd71144e">
    <diagram id="0mtorhF8wzX9WZ9EA87X" name="Page-1">
        <mxGraphModel dx="563" dy="618" grid="1" gridSize="10" guides="1" tooltips="1" connect="1" arrows="1" fold="1" page="1" pageScale="1" pageWidth="827" pageHeight="1169" math="0" shadow="0">
            <root>
                <mxCell id="0"/>
                <mxCell id="1" parent="0"/>
                <mxCell id="2" value="`" style="endArrow=none;html=1;strokeWidth=3;" parent="1" edge="1">
                    <mxGeometry width="50" height="50" relative="1" as="geometry">
                        <mxPoint x="80" y="80" as="sourcePoint"/>
                        <mxPoint x="320" y="80" as="targetPoint"/>
                    </mxGeometry>
                </mxCell>
                <mxCell id="3" value="" style="endArrow=none;html=1;strokeWidth=3;" parent="1" edge="1">
                    <mxGeometry width="50" height="50" relative="1" as="geometry">
                        <mxPoint x="320" y="70" as="sourcePoint"/>
                        <mxPoint x="520" y="70" as="targetPoint"/>
                    </mxGeometry>
                </mxCell>
                <mxCell id="4" value="" style="endArrow=none;html=1;strokeWidth=3;" parent="1" edge="1">
                    <mxGeometry width="50" height="50" relative="1" as="geometry">
                        <mxPoint x="520" y="80" as="sourcePoint"/>
                        <mxPoint x="720" y="80" as="targetPoint"/>
                    </mxGeometry>
                </mxCell>
                <mxCell id="6" value="" style="endArrow=none;html=1;strokeWidth=3;" parent="1" edge="1">
                    <mxGeometry width="50" height="50" relative="1" as="geometry">
                        <mxPoint x="720" y="70" as="sourcePoint"/>
                        <mxPoint x="920" y="70" as="targetPoint"/>
                    </mxGeometry>
                </mxCell>
                <mxCell id="7" value="" style="endArrow=none;html=1;strokeWidth=3;" parent="1" edge="1">
                    <mxGeometry width="50" height="50" relative="1" as="geometry">
                        <mxPoint x="920" y="80" as="sourcePoint"/>
                        <mxPoint x="1120" y="80" as="targetPoint"/>
                    </mxGeometry>
                </mxCell>
                <mxCell id="8" value="" style="endArrow=none;html=1;strokeWidth=3;" parent="1" edge="1">
                    <mxGeometry width="50" height="50" relative="1" as="geometry">
                        <mxPoint x="80" y="80" as="sourcePoint"/>
                        <mxPoint x="80" y="320" as="targetPoint"/>
                    </mxGeometry>
                </mxCell>
                <mxCell id="9" value="" style="endArrow=none;html=1;strokeWidth=3;" parent="1" edge="1">
                    <mxGeometry width="50" height="50" relative="1" as="geometry">
                        <mxPoint x="70" y="320" as="sourcePoint"/>
                        <mxPoint x="70" y="520" as="targetPoint"/>
                    </mxGeometry>
                </mxCell>
                <mxCell id="10" value="" style="endArrow=none;html=1;strokeWidth=3;" parent="1" edge="1">
                    <mxGeometry width="50" height="50" relative="1" as="geometry">
                        <mxPoint x="80" y="520" as="sourcePoint"/>
                        <mxPoint x="80" y="720" as="targetPoint"/>
                    </mxGeometry>
                </mxCell>
                <mxCell id="17" value="" style="endArrow=none;html=1;strokeWidth=1;" parent="1" edge="1">
                    <mxGeometry width="50" height="50" relative="1" as="geometry">
                        <mxPoint x="80" y="1320" as="sourcePoint"/>
                        <mxPoint x="1320" y="1320" as="targetPoint"/>
                    </mxGeometry>
                </mxCell>
                <mxCell id="18" value="" style="endArrow=none;html=1;strokeWidth=1;" parent="1" edge="1">
                    <mxGeometry width="50" height="50" relative="1" as="geometry">
                        <mxPoint x="1120" y="80" as="sourcePoint"/>
                        <mxPoint x="1120" y="1320" as="targetPoint"/>
                    </mxGeometry>
                </mxCell>
                <mxCell id="25" value="" style="ellipse;whiteSpace=wrap;html=1;fillColor=#3333FF;strokeColor=none;" parent="1" vertex="1">
                    <mxGeometry x="90" y="90" width="20" height="20" as="geometry"/>
                </mxCell>
                <mxCell id="26" value="" style="ellipse;whiteSpace=wrap;html=1;fillColor=#3333FF;strokeColor=none;" parent="1" vertex="1">
                    <mxGeometry x="90" y="130" width="20" height="20" as="geometry"/>
                </mxCell>
                <mxCell id="27" value="" style="ellipse;whiteSpace=wrap;html=1;fillColor=#3333FF;strokeColor=none;" parent="1" vertex="1">
                    <mxGeometry x="90" y="170" width="20" height="20" as="geometry"/>
                </mxCell>
                <mxCell id="28" value="" style="ellipse;whiteSpace=wrap;html=1;fillColor=#3333FF;strokeColor=none;" parent="1" vertex="1">
                    <mxGeometry x="90" y="210" width="20" height="20" as="geometry"/>
                </mxCell>
                <mxCell id="29" value="" style="ellipse;whiteSpace=wrap;html=1;fillColor=#3333FF;strokeColor=none;" parent="1" vertex="1">
                    <mxGeometry x="90" y="250" width="20" height="20" as="geometry"/>
                </mxCell>
                <mxCell id="30" value="" style="ellipse;whiteSpace=wrap;html=1;fillColor=#3333FF;strokeColor=none;" parent="1" vertex="1">
                    <mxGeometry x="90" y="290" width="20" height="20" as="geometry"/>
                </mxCell>
                <mxCell id="31" value="" style="ellipse;whiteSpace=wrap;html=1;fillColor=#3333FF;strokeColor=none;" parent="1" vertex="1">
                    <mxGeometry x="130" y="330" width="20" height="20" as="geometry"/>
                </mxCell>
                <mxCell id="32" value="" style="ellipse;whiteSpace=wrap;html=1;fillColor=#3333FF;strokeColor=none;" parent="1" vertex="1">
                    <mxGeometry x="130" y="370" width="20" height="20" as="geometry"/>
                </mxCell>
                <mxCell id="33" value="" style="ellipse;whiteSpace=wrap;html=1;fillColor=#3333FF;strokeColor=none;" parent="1" vertex="1">
                    <mxGeometry x="130" y="410" width="20" height="20" as="geometry"/>
                </mxCell>
                <mxCell id="34" value="" style="ellipse;whiteSpace=wrap;html=1;fillColor=#3333FF;strokeColor=none;" parent="1" vertex="1">
                    <mxGeometry x="130" y="450" width="20" height="20" as="geometry"/>
                </mxCell>
                <mxCell id="35" value="" style="ellipse;whiteSpace=wrap;html=1;fillColor=#3333FF;strokeColor=none;" parent="1" vertex="1">
                    <mxGeometry x="130" y="490" width="20" height="20" as="geometry"/>
                </mxCell>
                <mxCell id="46" value="" style="ellipse;whiteSpace=wrap;html=1;fillColor=#3333FF;strokeColor=none;" parent="1" vertex="1">
                    <mxGeometry x="130" y="89" width="20" height="20" as="geometry"/>
                </mxCell>
                <mxCell id="47" value="" style="ellipse;whiteSpace=wrap;html=1;fillColor=#3333FF;strokeColor=none;" parent="1" vertex="1">
                    <mxGeometry x="170" y="89" width="20" height="20" as="geometry"/>
                </mxCell>
                <mxCell id="48" value="" style="ellipse;whiteSpace=wrap;html=1;fillColor=#3333FF;strokeColor=none;" parent="1" vertex="1">
                    <mxGeometry x="210" y="89" width="20" height="20" as="geometry"/>
                </mxCell>
                <mxCell id="49" value="" style="ellipse;whiteSpace=wrap;html=1;fillColor=#3333FF;strokeColor=none;" parent="1" vertex="1">
                    <mxGeometry x="250" y="89" width="20" height="20" as="geometry"/>
                </mxCell>
                <mxCell id="66" value="" style="ellipse;whiteSpace=wrap;html=1;fillColor=#006600;strokeColor=none;" parent="1" vertex="1">
                    <mxGeometry x="370" y="1169" width="20" height="20" as="geometry"/>
                </mxCell>
                <mxCell id="67" value="" style="ellipse;whiteSpace=wrap;html=1;fillColor=#006600;strokeColor=none;" parent="1" vertex="1">
                    <mxGeometry x="410" y="1209" width="20" height="20" as="geometry"/>
                </mxCell>
                <mxCell id="68" value="" style="ellipse;whiteSpace=wrap;html=1;fillColor=#006600;strokeColor=none;" parent="1" vertex="1">
                    <mxGeometry x="450" y="1249" width="20" height="20" as="geometry"/>
                </mxCell>
                <mxCell id="69" value="" style="ellipse;whiteSpace=wrap;html=1;fillColor=#006600;strokeColor=none;" parent="1" vertex="1">
                    <mxGeometry x="490" y="1289" width="20" height="20" as="geometry"/>
                </mxCell>
                <mxCell id="82" value="" style="ellipse;whiteSpace=wrap;html=1;fillColor=#006600;strokeColor=none;" parent="1" vertex="1">
                    <mxGeometry x="330" y="1129" width="20" height="20" as="geometry"/>
                </mxCell>
                <mxCell id="100" value="1" style="text;html=1;strokeColor=none;fillColor=none;align=center;verticalAlign=middle;whiteSpace=wrap;rounded=0;fontSize=20;" parent="1" vertex="1">
                    <mxGeometry x="80" y="10" width="40" height="30" as="geometry"/>
                </mxCell>
                <mxCell id="102" value="7" style="text;html=1;strokeColor=none;fillColor=none;align=center;verticalAlign=middle;whiteSpace=wrap;rounded=0;fontSize=20;" parent="1" vertex="1">
                    <mxGeometry x="320" y="10" width="40" height="30" as="geometry"/>
                </mxCell>
                <mxCell id="103" value="12" style="text;html=1;strokeColor=none;fillColor=none;align=center;verticalAlign=middle;whiteSpace=wrap;rounded=0;fontSize=20;" parent="1" vertex="1">
                    <mxGeometry x="520" y="10" width="40" height="30" as="geometry"/>
                </mxCell>
                <mxCell id="104" value="17" style="text;html=1;strokeColor=none;fillColor=none;align=center;verticalAlign=middle;whiteSpace=wrap;rounded=0;fontSize=20;" parent="1" vertex="1">
                    <mxGeometry x="720" y="10" width="40" height="30" as="geometry"/>
                </mxCell>
                <mxCell id="105" value="22" style="text;html=1;strokeColor=none;fillColor=none;align=center;verticalAlign=middle;whiteSpace=wrap;rounded=0;fontSize=20;" parent="1" vertex="1">
                    <mxGeometry x="920" y="10" width="40" height="30" as="geometry"/>
                </mxCell>
                <mxCell id="106" value="27" style="text;html=1;strokeColor=none;fillColor=none;align=center;verticalAlign=middle;whiteSpace=wrap;rounded=0;fontSize=20;" parent="1" vertex="1">
                    <mxGeometry x="1120" y="10" width="40" height="30" as="geometry"/>
                </mxCell>
                <mxCell id="107" value="7" style="text;html=1;strokeColor=none;fillColor=none;align=center;verticalAlign=middle;whiteSpace=wrap;rounded=0;fontSize=20;" parent="1" vertex="1">
                    <mxGeometry y="332" width="40" height="30" as="geometry"/>
                </mxCell>
                <mxCell id="108" value="1" style="text;html=1;strokeColor=none;fillColor=none;align=center;verticalAlign=middle;whiteSpace=wrap;rounded=0;fontSize=20;" parent="1" vertex="1">
                    <mxGeometry y="90" width="40" height="30" as="geometry"/>
                </mxCell>
                <mxCell id="110" value="12" style="text;html=1;strokeColor=none;fillColor=none;align=center;verticalAlign=middle;whiteSpace=wrap;rounded=0;fontSize=20;" parent="1" vertex="1">
                    <mxGeometry y="540" width="40" height="30" as="geometry"/>
                </mxCell>
                <mxCell id="111" value="17" style="text;html=1;strokeColor=none;fillColor=none;align=center;verticalAlign=middle;whiteSpace=wrap;rounded=0;fontSize=20;" parent="1" vertex="1">
                    <mxGeometry y="730" width="40" height="30" as="geometry"/>
                </mxCell>
                <mxCell id="113" value="22" style="text;html=1;strokeColor=none;fillColor=none;align=center;verticalAlign=middle;whiteSpace=wrap;rounded=0;fontSize=20;" parent="1" vertex="1">
                    <mxGeometry y="930" width="40" height="30" as="geometry"/>
                </mxCell>
                <mxCell id="149" value="" style="endArrow=none;html=1;strokeWidth=3;" edge="1" parent="1">
                    <mxGeometry width="50" height="50" relative="1" as="geometry">
                        <mxPoint x="1120" y="70" as="sourcePoint"/>
                        <mxPoint x="1320" y="70" as="targetPoint"/>
                    </mxGeometry>
                </mxCell>
                <mxCell id="150" value="31" style="text;html=1;strokeColor=none;fillColor=none;align=center;verticalAlign=middle;whiteSpace=wrap;rounded=0;fontSize=20;" vertex="1" parent="1">
                    <mxGeometry x="1280" y="10" width="40" height="30" as="geometry"/>
                </mxCell>
                <mxCell id="151" value="31" style="text;html=1;strokeColor=none;fillColor=none;align=center;verticalAlign=middle;whiteSpace=wrap;rounded=0;fontSize=20;" vertex="1" parent="1">
                    <mxGeometry y="1289" width="40" height="30" as="geometry"/>
                </mxCell>
                <mxCell id="152" value="27" style="text;html=1;strokeColor=none;fillColor=none;align=center;verticalAlign=middle;whiteSpace=wrap;rounded=0;fontSize=20;" vertex="1" parent="1">
                    <mxGeometry y="1125" width="40" height="30" as="geometry"/>
                </mxCell>
                <mxCell id="153" value="" style="endArrow=none;html=1;strokeWidth=1;" edge="1" parent="1">
                    <mxGeometry width="50" height="50" relative="1" as="geometry">
                        <mxPoint x="80" y="1120" as="sourcePoint"/>
                        <mxPoint x="1320" y="1120" as="targetPoint"/>
                    </mxGeometry>
                </mxCell>
                <mxCell id="154" value="" style="endArrow=none;html=1;strokeWidth=1;" edge="1" parent="1">
                    <mxGeometry width="50" height="50" relative="1" as="geometry">
                        <mxPoint x="80" y="920" as="sourcePoint"/>
                        <mxPoint x="1320" y="920" as="targetPoint"/>
                    </mxGeometry>
                </mxCell>
                <mxCell id="155" value="" style="endArrow=none;html=1;strokeWidth=1;" edge="1" parent="1">
                    <mxGeometry width="50" height="50" relative="1" as="geometry">
                        <mxPoint x="80" y="720" as="sourcePoint"/>
                        <mxPoint x="1320" y="720" as="targetPoint"/>
                    </mxGeometry>
                </mxCell>
                <mxCell id="156" value="" style="endArrow=none;html=1;strokeWidth=1;" edge="1" parent="1">
                    <mxGeometry width="50" height="50" relative="1" as="geometry">
                        <mxPoint x="80" y="520" as="sourcePoint"/>
                        <mxPoint x="1320" y="520" as="targetPoint"/>
                    </mxGeometry>
                </mxCell>
                <mxCell id="157" value="" style="endArrow=none;html=1;strokeWidth=1;" edge="1" parent="1">
                    <mxGeometry width="50" height="50" relative="1" as="geometry">
                        <mxPoint x="80" y="320" as="sourcePoint"/>
                        <mxPoint x="1320" y="320" as="targetPoint"/>
                    </mxGeometry>
                </mxCell>
                <mxCell id="158" value="" style="endArrow=none;html=1;strokeWidth=1;" edge="1" parent="1">
                    <mxGeometry width="50" height="50" relative="1" as="geometry">
                        <mxPoint x="1320" y="80" as="sourcePoint"/>
                        <mxPoint x="1320" y="1310" as="targetPoint"/>
                    </mxGeometry>
                </mxCell>
                <mxCell id="159" value="" style="endArrow=none;html=1;strokeWidth=1;" edge="1" parent="1">
                    <mxGeometry width="50" height="50" relative="1" as="geometry">
                        <mxPoint x="920" y="80" as="sourcePoint"/>
                        <mxPoint x="920" y="1320" as="targetPoint"/>
                    </mxGeometry>
                </mxCell>
                <mxCell id="160" value="" style="endArrow=none;html=1;strokeWidth=1;" edge="1" parent="1">
                    <mxGeometry width="50" height="50" relative="1" as="geometry">
                        <mxPoint x="720" y="80" as="sourcePoint"/>
                        <mxPoint x="720" y="1320" as="targetPoint"/>
                    </mxGeometry>
                </mxCell>
                <mxCell id="161" value="" style="endArrow=none;html=1;strokeWidth=1;" edge="1" parent="1">
                    <mxGeometry width="50" height="50" relative="1" as="geometry">
                        <mxPoint x="520" y="80" as="sourcePoint"/>
                        <mxPoint x="520" y="1320" as="targetPoint"/>
                    </mxGeometry>
                </mxCell>
                <mxCell id="162" value="" style="endArrow=none;html=1;strokeWidth=1;" edge="1" parent="1">
                    <mxGeometry width="50" height="50" relative="1" as="geometry">
                        <mxPoint x="320" y="80" as="sourcePoint"/>
                        <mxPoint x="320" y="1320" as="targetPoint"/>
                    </mxGeometry>
                </mxCell>
                <mxCell id="163" value="" style="endArrow=none;html=1;strokeWidth=3;" edge="1" parent="1">
                    <mxGeometry width="50" height="50" relative="1" as="geometry">
                        <mxPoint x="70" y="720" as="sourcePoint"/>
                        <mxPoint x="70" y="920" as="targetPoint"/>
                    </mxGeometry>
                </mxCell>
                <mxCell id="164" value="" style="endArrow=none;html=1;strokeWidth=3;" edge="1" parent="1">
                    <mxGeometry width="50" height="50" relative="1" as="geometry">
                        <mxPoint x="80" y="920" as="sourcePoint"/>
                        <mxPoint x="80" y="1120" as="targetPoint"/>
                    </mxGeometry>
                </mxCell>
                <mxCell id="165" value="" style="endArrow=none;html=1;strokeWidth=3;" edge="1" parent="1">
                    <mxGeometry width="50" height="50" relative="1" as="geometry">
                        <mxPoint x="70" y="1120" as="sourcePoint"/>
                        <mxPoint x="70" y="1320" as="targetPoint"/>
                    </mxGeometry>
                </mxCell>
                <mxCell id="167" value="" style="ellipse;whiteSpace=wrap;html=1;fillColor=#3333FF;strokeColor=none;" vertex="1" parent="1">
                    <mxGeometry x="290" y="89" width="20" height="20" as="geometry"/>
                </mxCell>
                <mxCell id="168" value="" style="ellipse;whiteSpace=wrap;html=1;fillColor=#3333FF;strokeColor=none;" vertex="1" parent="1">
                    <mxGeometry x="170" y="530" width="20" height="20" as="geometry"/>
                </mxCell>
                <mxCell id="169" value="" style="ellipse;whiteSpace=wrap;html=1;fillColor=#3333FF;strokeColor=none;" vertex="1" parent="1">
                    <mxGeometry x="170" y="570" width="20" height="20" as="geometry"/>
                </mxCell>
                <mxCell id="170" value="" style="ellipse;whiteSpace=wrap;html=1;fillColor=#3333FF;strokeColor=none;" vertex="1" parent="1">
                    <mxGeometry x="170" y="610" width="20" height="20" as="geometry"/>
                </mxCell>
                <mxCell id="171" value="" style="ellipse;whiteSpace=wrap;html=1;fillColor=#3333FF;strokeColor=none;" vertex="1" parent="1">
                    <mxGeometry x="170" y="650" width="20" height="20" as="geometry"/>
                </mxCell>
                <mxCell id="172" value="" style="ellipse;whiteSpace=wrap;html=1;fillColor=#3333FF;strokeColor=none;" vertex="1" parent="1">
                    <mxGeometry x="170" y="690" width="20" height="20" as="geometry"/>
                </mxCell>
                <mxCell id="173" value="" style="ellipse;whiteSpace=wrap;html=1;fillColor=#3333FF;strokeColor=none;" vertex="1" parent="1">
                    <mxGeometry x="210" y="730" width="20" height="20" as="geometry"/>
                </mxCell>
                <mxCell id="174" value="" style="ellipse;whiteSpace=wrap;html=1;fillColor=#3333FF;strokeColor=none;" vertex="1" parent="1">
                    <mxGeometry x="210" y="770" width="20" height="20" as="geometry"/>
                </mxCell>
                <mxCell id="175" value="" style="ellipse;whiteSpace=wrap;html=1;fillColor=#3333FF;strokeColor=none;" vertex="1" parent="1">
                    <mxGeometry x="210" y="810" width="20" height="20" as="geometry"/>
                </mxCell>
                <mxCell id="176" value="" style="ellipse;whiteSpace=wrap;html=1;fillColor=#3333FF;strokeColor=none;" vertex="1" parent="1">
                    <mxGeometry x="210" y="850" width="20" height="20" as="geometry"/>
                </mxCell>
                <mxCell id="177" value="" style="ellipse;whiteSpace=wrap;html=1;fillColor=#3333FF;strokeColor=none;" vertex="1" parent="1">
                    <mxGeometry x="210" y="890" width="20" height="20" as="geometry"/>
                </mxCell>
                <mxCell id="178" value="" style="ellipse;whiteSpace=wrap;html=1;fillColor=#3333FF;strokeColor=none;" vertex="1" parent="1">
                    <mxGeometry x="250" y="930" width="20" height="20" as="geometry"/>
                </mxCell>
                <mxCell id="179" value="" style="ellipse;whiteSpace=wrap;html=1;fillColor=#3333FF;strokeColor=none;" vertex="1" parent="1">
                    <mxGeometry x="250" y="970" width="20" height="20" as="geometry"/>
                </mxCell>
                <mxCell id="180" value="" style="ellipse;whiteSpace=wrap;html=1;fillColor=#3333FF;strokeColor=none;" vertex="1" parent="1">
                    <mxGeometry x="250" y="1010" width="20" height="20" as="geometry"/>
                </mxCell>
                <mxCell id="181" value="" style="ellipse;whiteSpace=wrap;html=1;fillColor=#3333FF;strokeColor=none;" vertex="1" parent="1">
                    <mxGeometry x="250" y="1050" width="20" height="20" as="geometry"/>
                </mxCell>
                <mxCell id="182" value="" style="ellipse;whiteSpace=wrap;html=1;fillColor=#3333FF;strokeColor=none;" vertex="1" parent="1">
                    <mxGeometry x="250" y="1090" width="20" height="20" as="geometry"/>
                </mxCell>
                <mxCell id="183" value="" style="ellipse;whiteSpace=wrap;html=1;fillColor=#3333FF;strokeColor=none;" vertex="1" parent="1">
                    <mxGeometry x="290" y="1130" width="20" height="20" as="geometry"/>
                </mxCell>
                <mxCell id="184" value="" style="ellipse;whiteSpace=wrap;html=1;fillColor=#3333FF;strokeColor=none;" vertex="1" parent="1">
                    <mxGeometry x="290" y="1170" width="20" height="20" as="geometry"/>
                </mxCell>
                <mxCell id="185" value="" style="ellipse;whiteSpace=wrap;html=1;fillColor=#3333FF;strokeColor=none;" vertex="1" parent="1">
                    <mxGeometry x="290" y="1210" width="20" height="20" as="geometry"/>
                </mxCell>
                <mxCell id="186" value="" style="ellipse;whiteSpace=wrap;html=1;fillColor=#3333FF;strokeColor=none;" vertex="1" parent="1">
                    <mxGeometry x="290" y="1250" width="20" height="20" as="geometry"/>
                </mxCell>
                <mxCell id="187" value="" style="ellipse;whiteSpace=wrap;html=1;fillColor=#3333FF;strokeColor=none;" vertex="1" parent="1">
                    <mxGeometry x="290" y="1290" width="20" height="20" as="geometry"/>
                </mxCell>
                <mxCell id="188" value="" style="ellipse;whiteSpace=wrap;html=1;fillColor=#3333FF;strokeColor=none;" vertex="1" parent="1">
                    <mxGeometry x="330" y="129" width="20" height="20" as="geometry"/>
                </mxCell>
                <mxCell id="189" value="" style="ellipse;whiteSpace=wrap;html=1;fillColor=#3333FF;strokeColor=none;" vertex="1" parent="1">
                    <mxGeometry x="370" y="129" width="20" height="20" as="geometry"/>
                </mxCell>
                <mxCell id="190" value="" style="ellipse;whiteSpace=wrap;html=1;fillColor=#3333FF;strokeColor=none;" vertex="1" parent="1">
                    <mxGeometry x="410" y="129" width="20" height="20" as="geometry"/>
                </mxCell>
                <mxCell id="191" value="" style="ellipse;whiteSpace=wrap;html=1;fillColor=#3333FF;strokeColor=none;" vertex="1" parent="1">
                    <mxGeometry x="450" y="129" width="20" height="20" as="geometry"/>
                </mxCell>
                <mxCell id="192" value="" style="ellipse;whiteSpace=wrap;html=1;fillColor=#3333FF;strokeColor=none;" vertex="1" parent="1">
                    <mxGeometry x="490" y="129" width="20" height="20" as="geometry"/>
                </mxCell>
                <mxCell id="193" value="" style="ellipse;whiteSpace=wrap;html=1;fillColor=#3333FF;strokeColor=none;" vertex="1" parent="1">
                    <mxGeometry x="530" y="169" width="20" height="20" as="geometry"/>
                </mxCell>
                <mxCell id="194" value="" style="ellipse;whiteSpace=wrap;html=1;fillColor=#3333FF;strokeColor=none;" vertex="1" parent="1">
                    <mxGeometry x="570" y="169" width="20" height="20" as="geometry"/>
                </mxCell>
                <mxCell id="195" value="" style="ellipse;whiteSpace=wrap;html=1;fillColor=#3333FF;strokeColor=none;" vertex="1" parent="1">
                    <mxGeometry x="610" y="169" width="20" height="20" as="geometry"/>
                </mxCell>
                <mxCell id="196" value="" style="ellipse;whiteSpace=wrap;html=1;fillColor=#3333FF;strokeColor=none;" vertex="1" parent="1">
                    <mxGeometry x="650" y="169" width="20" height="20" as="geometry"/>
                </mxCell>
                <mxCell id="197" value="" style="ellipse;whiteSpace=wrap;html=1;fillColor=#3333FF;strokeColor=none;" vertex="1" parent="1">
                    <mxGeometry x="690" y="169" width="20" height="20" as="geometry"/>
                </mxCell>
                <mxCell id="198" value="" style="ellipse;whiteSpace=wrap;html=1;fillColor=#3333FF;strokeColor=none;" vertex="1" parent="1">
                    <mxGeometry x="730" y="209" width="20" height="20" as="geometry"/>
                </mxCell>
                <mxCell id="199" value="" style="ellipse;whiteSpace=wrap;html=1;fillColor=#3333FF;strokeColor=none;" vertex="1" parent="1">
                    <mxGeometry x="770" y="209" width="20" height="20" as="geometry"/>
                </mxCell>
                <mxCell id="200" value="" style="ellipse;whiteSpace=wrap;html=1;fillColor=#3333FF;strokeColor=none;" vertex="1" parent="1">
                    <mxGeometry x="810" y="209" width="20" height="20" as="geometry"/>
                </mxCell>
                <mxCell id="201" value="" style="ellipse;whiteSpace=wrap;html=1;fillColor=#3333FF;strokeColor=none;" vertex="1" parent="1">
                    <mxGeometry x="850" y="209" width="20" height="20" as="geometry"/>
                </mxCell>
                <mxCell id="202" value="" style="ellipse;whiteSpace=wrap;html=1;fillColor=#3333FF;strokeColor=none;" vertex="1" parent="1">
                    <mxGeometry x="890" y="209" width="20" height="20" as="geometry"/>
                </mxCell>
                <mxCell id="203" value="" style="ellipse;whiteSpace=wrap;html=1;fillColor=#3333FF;strokeColor=none;" vertex="1" parent="1">
                    <mxGeometry x="930" y="249" width="20" height="20" as="geometry"/>
                </mxCell>
                <mxCell id="204" value="" style="ellipse;whiteSpace=wrap;html=1;fillColor=#3333FF;strokeColor=none;" vertex="1" parent="1">
                    <mxGeometry x="970" y="249" width="20" height="20" as="geometry"/>
                </mxCell>
                <mxCell id="205" value="" style="ellipse;whiteSpace=wrap;html=1;fillColor=#3333FF;strokeColor=none;" vertex="1" parent="1">
                    <mxGeometry x="1010" y="249" width="20" height="20" as="geometry"/>
                </mxCell>
                <mxCell id="206" value="" style="ellipse;whiteSpace=wrap;html=1;fillColor=#3333FF;strokeColor=none;" vertex="1" parent="1">
                    <mxGeometry x="1050" y="249" width="20" height="20" as="geometry"/>
                </mxCell>
                <mxCell id="207" value="" style="ellipse;whiteSpace=wrap;html=1;fillColor=#3333FF;strokeColor=none;" vertex="1" parent="1">
                    <mxGeometry x="1090" y="249" width="20" height="20" as="geometry"/>
                </mxCell>
                <mxCell id="208" value="" style="ellipse;whiteSpace=wrap;html=1;fillColor=#3333FF;strokeColor=none;" vertex="1" parent="1">
                    <mxGeometry x="1130" y="289" width="20" height="20" as="geometry"/>
                </mxCell>
                <mxCell id="209" value="" style="ellipse;whiteSpace=wrap;html=1;fillColor=#3333FF;strokeColor=none;" vertex="1" parent="1">
                    <mxGeometry x="1170" y="289" width="20" height="20" as="geometry"/>
                </mxCell>
                <mxCell id="210" value="" style="ellipse;whiteSpace=wrap;html=1;fillColor=#3333FF;strokeColor=none;" vertex="1" parent="1">
                    <mxGeometry x="1210" y="289" width="20" height="20" as="geometry"/>
                </mxCell>
                <mxCell id="211" value="" style="ellipse;whiteSpace=wrap;html=1;fillColor=#3333FF;strokeColor=none;" vertex="1" parent="1">
                    <mxGeometry x="1250" y="289" width="20" height="20" as="geometry"/>
                </mxCell>
                <mxCell id="212" value="" style="ellipse;whiteSpace=wrap;html=1;fillColor=#3333FF;strokeColor=none;" vertex="1" parent="1">
                    <mxGeometry x="1290" y="289" width="20" height="20" as="geometry"/>
                </mxCell>
                <mxCell id="213" value="" style="ellipse;whiteSpace=wrap;html=1;fillColor=#006600;strokeColor=none;" vertex="1" parent="1">
                    <mxGeometry x="370" y="969" width="20" height="20" as="geometry"/>
                </mxCell>
                <mxCell id="214" value="" style="ellipse;whiteSpace=wrap;html=1;fillColor=#006600;strokeColor=none;" vertex="1" parent="1">
                    <mxGeometry x="410" y="1009" width="20" height="20" as="geometry"/>
                </mxCell>
                <mxCell id="215" value="" style="ellipse;whiteSpace=wrap;html=1;fillColor=#006600;strokeColor=none;" vertex="1" parent="1">
                    <mxGeometry x="450" y="1049" width="20" height="20" as="geometry"/>
                </mxCell>
                <mxCell id="216" value="" style="ellipse;whiteSpace=wrap;html=1;fillColor=#006600;strokeColor=none;" vertex="1" parent="1">
                    <mxGeometry x="490" y="1089" width="20" height="20" as="geometry"/>
                </mxCell>
                <mxCell id="217" value="" style="ellipse;whiteSpace=wrap;html=1;fillColor=#006600;strokeColor=none;" vertex="1" parent="1">
                    <mxGeometry x="330" y="929" width="20" height="20" as="geometry"/>
                </mxCell>
                <mxCell id="218" value="" style="ellipse;whiteSpace=wrap;html=1;fillColor=#006600;strokeColor=none;" vertex="1" parent="1">
                    <mxGeometry x="370" y="769" width="20" height="20" as="geometry"/>
                </mxCell>
                <mxCell id="219" value="" style="ellipse;whiteSpace=wrap;html=1;fillColor=#006600;strokeColor=none;" vertex="1" parent="1">
                    <mxGeometry x="410" y="809" width="20" height="20" as="geometry"/>
                </mxCell>
                <mxCell id="220" value="" style="ellipse;whiteSpace=wrap;html=1;fillColor=#006600;strokeColor=none;" vertex="1" parent="1">
                    <mxGeometry x="450" y="849" width="20" height="20" as="geometry"/>
                </mxCell>
                <mxCell id="221" value="" style="ellipse;whiteSpace=wrap;html=1;fillColor=#006600;strokeColor=none;" vertex="1" parent="1">
                    <mxGeometry x="490" y="889" width="20" height="20" as="geometry"/>
                </mxCell>
                <mxCell id="222" value="" style="ellipse;whiteSpace=wrap;html=1;fillColor=#006600;strokeColor=none;" vertex="1" parent="1">
                    <mxGeometry x="330" y="729" width="20" height="20" as="geometry"/>
                </mxCell>
                <mxCell id="223" value="" style="ellipse;whiteSpace=wrap;html=1;fillColor=#006600;strokeColor=none;" vertex="1" parent="1">
                    <mxGeometry x="370" y="569" width="20" height="20" as="geometry"/>
                </mxCell>
                <mxCell id="224" value="" style="ellipse;whiteSpace=wrap;html=1;fillColor=#006600;strokeColor=none;" vertex="1" parent="1">
                    <mxGeometry x="410" y="609" width="20" height="20" as="geometry"/>
                </mxCell>
                <mxCell id="225" value="" style="ellipse;whiteSpace=wrap;html=1;fillColor=#006600;strokeColor=none;" vertex="1" parent="1">
                    <mxGeometry x="450" y="649" width="20" height="20" as="geometry"/>
                </mxCell>
                <mxCell id="226" value="" style="ellipse;whiteSpace=wrap;html=1;fillColor=#006600;strokeColor=none;" vertex="1" parent="1">
                    <mxGeometry x="490" y="679" width="20" height="20" as="geometry"/>
                </mxCell>
                <mxCell id="227" value="" style="ellipse;whiteSpace=wrap;html=1;fillColor=#006600;strokeColor=none;" vertex="1" parent="1">
                    <mxGeometry x="330" y="529" width="20" height="20" as="geometry"/>
                </mxCell>
                <mxCell id="228" value="" style="ellipse;whiteSpace=wrap;html=1;fillColor=#006600;strokeColor=none;" vertex="1" parent="1">
                    <mxGeometry x="370" y="369" width="20" height="20" as="geometry"/>
                </mxCell>
                <mxCell id="229" value="" style="ellipse;whiteSpace=wrap;html=1;fillColor=#006600;strokeColor=none;" vertex="1" parent="1">
                    <mxGeometry x="410" y="409" width="20" height="20" as="geometry"/>
                </mxCell>
                <mxCell id="230" value="" style="ellipse;whiteSpace=wrap;html=1;fillColor=#006600;strokeColor=none;" vertex="1" parent="1">
                    <mxGeometry x="450" y="449" width="20" height="20" as="geometry"/>
                </mxCell>
                <mxCell id="231" value="" style="ellipse;whiteSpace=wrap;html=1;fillColor=#006600;strokeColor=none;" vertex="1" parent="1">
                    <mxGeometry x="490" y="489" width="20" height="20" as="geometry"/>
                </mxCell>
                <mxCell id="232" value="" style="ellipse;whiteSpace=wrap;html=1;fillColor=#006600;strokeColor=none;" vertex="1" parent="1">
                    <mxGeometry x="330" y="329" width="20" height="20" as="geometry"/>
                </mxCell>
                <mxCell id="233" value="" style="ellipse;whiteSpace=wrap;html=1;fillColor=#006600;strokeColor=none;" vertex="1" parent="1">
                    <mxGeometry x="570" y="369" width="20" height="20" as="geometry"/>
                </mxCell>
                <mxCell id="234" value="" style="ellipse;whiteSpace=wrap;html=1;fillColor=#006600;strokeColor=none;" vertex="1" parent="1">
                    <mxGeometry x="610" y="409" width="20" height="20" as="geometry"/>
                </mxCell>
                <mxCell id="235" value="" style="ellipse;whiteSpace=wrap;html=1;fillColor=#006600;strokeColor=none;" vertex="1" parent="1">
                    <mxGeometry x="650" y="449" width="20" height="20" as="geometry"/>
                </mxCell>
                <mxCell id="236" value="" style="ellipse;whiteSpace=wrap;html=1;fillColor=#006600;strokeColor=none;" vertex="1" parent="1">
                    <mxGeometry x="690" y="489" width="20" height="20" as="geometry"/>
                </mxCell>
                <mxCell id="237" value="" style="ellipse;whiteSpace=wrap;html=1;fillColor=#006600;strokeColor=none;" vertex="1" parent="1">
                    <mxGeometry x="530" y="329" width="20" height="20" as="geometry"/>
                </mxCell>
                <mxCell id="238" value="" style="ellipse;whiteSpace=wrap;html=1;fillColor=#006600;strokeColor=none;" vertex="1" parent="1">
                    <mxGeometry x="770" y="369" width="20" height="20" as="geometry"/>
                </mxCell>
                <mxCell id="239" value="" style="ellipse;whiteSpace=wrap;html=1;fillColor=#006600;strokeColor=none;" vertex="1" parent="1">
                    <mxGeometry x="810" y="409" width="20" height="20" as="geometry"/>
                </mxCell>
                <mxCell id="240" value="" style="ellipse;whiteSpace=wrap;html=1;fillColor=#006600;strokeColor=none;" vertex="1" parent="1">
                    <mxGeometry x="850" y="449" width="20" height="20" as="geometry"/>
                </mxCell>
                <mxCell id="241" value="" style="ellipse;whiteSpace=wrap;html=1;fillColor=#006600;strokeColor=none;" vertex="1" parent="1">
                    <mxGeometry x="890" y="489" width="20" height="20" as="geometry"/>
                </mxCell>
                <mxCell id="242" value="" style="ellipse;whiteSpace=wrap;html=1;fillColor=#006600;strokeColor=none;" vertex="1" parent="1">
                    <mxGeometry x="730" y="329" width="20" height="20" as="geometry"/>
                </mxCell>
                <mxCell id="243" value="" style="ellipse;whiteSpace=wrap;html=1;fillColor=#006600;strokeColor=none;" vertex="1" parent="1">
                    <mxGeometry x="970" y="369" width="20" height="20" as="geometry"/>
                </mxCell>
                <mxCell id="244" value="" style="ellipse;whiteSpace=wrap;html=1;fillColor=#006600;strokeColor=none;" vertex="1" parent="1">
                    <mxGeometry x="1010" y="409" width="20" height="20" as="geometry"/>
                </mxCell>
                <mxCell id="245" value="" style="ellipse;whiteSpace=wrap;html=1;fillColor=#006600;strokeColor=none;" vertex="1" parent="1">
                    <mxGeometry x="1050" y="449" width="20" height="20" as="geometry"/>
                </mxCell>
                <mxCell id="246" value="" style="ellipse;whiteSpace=wrap;html=1;fillColor=#006600;strokeColor=none;" vertex="1" parent="1">
                    <mxGeometry x="1090" y="489" width="20" height="20" as="geometry"/>
                </mxCell>
                <mxCell id="247" value="" style="ellipse;whiteSpace=wrap;html=1;fillColor=#006600;strokeColor=none;" vertex="1" parent="1">
                    <mxGeometry x="930" y="329" width="20" height="20" as="geometry"/>
                </mxCell>
                <mxCell id="248" value="" style="ellipse;whiteSpace=wrap;html=1;fillColor=#006600;strokeColor=none;" vertex="1" parent="1">
                    <mxGeometry x="1170" y="369" width="20" height="20" as="geometry"/>
                </mxCell>
                <mxCell id="249" value="" style="ellipse;whiteSpace=wrap;html=1;fillColor=#006600;strokeColor=none;" vertex="1" parent="1">
                    <mxGeometry x="1210" y="409" width="20" height="20" as="geometry"/>
                </mxCell>
                <mxCell id="250" value="" style="ellipse;whiteSpace=wrap;html=1;fillColor=#006600;strokeColor=none;" vertex="1" parent="1">
                    <mxGeometry x="1250" y="449" width="20" height="20" as="geometry"/>
                </mxCell>
                <mxCell id="251" value="" style="ellipse;whiteSpace=wrap;html=1;fillColor=#006600;strokeColor=none;" vertex="1" parent="1">
                    <mxGeometry x="1290" y="489" width="20" height="20" as="geometry"/>
                </mxCell>
                <mxCell id="252" value="" style="ellipse;whiteSpace=wrap;html=1;fillColor=#006600;strokeColor=none;" vertex="1" parent="1">
                    <mxGeometry x="1130" y="329" width="20" height="20" as="geometry"/>
                </mxCell>
                <mxCell id="258" value="" style="ellipse;whiteSpace=wrap;html=1;fillColor=#FF3333;strokeColor=none;" vertex="1" parent="1">
                    <mxGeometry x="650" y="529" width="20" height="20" as="geometry"/>
                </mxCell>
                <mxCell id="259" value="" style="ellipse;whiteSpace=wrap;html=1;fillColor=#FFCCE6;strokeColor=none;" vertex="1" parent="1">
                    <mxGeometry x="770" y="529" width="20" height="20" as="geometry"/>
                </mxCell>
                <mxCell id="260" value="" style="ellipse;whiteSpace=wrap;html=1;fillColor=#99CCFF;strokeColor=none;" vertex="1" parent="1">
                    <mxGeometry x="1010" y="529" width="20" height="20" as="geometry"/>
                </mxCell>
                <mxCell id="261" value="" style="ellipse;whiteSpace=wrap;html=1;fillColor=#FFB366;strokeColor=none;" vertex="1" parent="1">
                    <mxGeometry x="1290" y="529" width="20" height="20" as="geometry"/>
                </mxCell>
                <mxCell id="262" value="" style="ellipse;whiteSpace=wrap;html=1;fillColor=#FFB366;strokeColor=none;" vertex="1" parent="1">
                    <mxGeometry x="1250" y="569" width="20" height="20" as="geometry"/>
                </mxCell>
                <mxCell id="263" value="" style="ellipse;whiteSpace=wrap;html=1;fillColor=#FFB366;strokeColor=none;" vertex="1" parent="1">
                    <mxGeometry x="1130" y="609" width="20" height="20" as="geometry"/>
                </mxCell>
                <mxCell id="264" value="" style="ellipse;whiteSpace=wrap;html=1;fillColor=#FFB366;strokeColor=none;" vertex="1" parent="1">
                    <mxGeometry x="1210" y="649" width="20" height="20" as="geometry"/>
                </mxCell>
                <mxCell id="265" value="" style="ellipse;whiteSpace=wrap;html=1;fillColor=#FFB366;strokeColor=none;" vertex="1" parent="1">
                    <mxGeometry x="1170" y="689" width="20" height="20" as="geometry"/>
                </mxCell>
                <mxCell id="266" value="" style="ellipse;whiteSpace=wrap;html=1;fillColor=#99CCFF;strokeColor=none;" vertex="1" parent="1">
                    <mxGeometry x="1090" y="569" width="20" height="20" as="geometry"/>
                </mxCell>
                <mxCell id="267" value="" style="ellipse;whiteSpace=wrap;html=1;fillColor=#FFCCE6;strokeColor=none;" vertex="1" parent="1">
                    <mxGeometry x="810" y="569" width="20" height="20" as="geometry"/>
                </mxCell>
                <mxCell id="268" value="" style="ellipse;whiteSpace=wrap;html=1;fillColor=#FF3333;strokeColor=none;" vertex="1" parent="1">
                    <mxGeometry x="530" y="569" width="20" height="20" as="geometry"/>
                </mxCell>
                <mxCell id="269" value="" style="ellipse;whiteSpace=wrap;html=1;fillColor=#FF3333;strokeColor=none;" vertex="1" parent="1">
                    <mxGeometry x="570" y="609" width="20" height="20" as="geometry"/>
                </mxCell>
                <mxCell id="270" value="" style="ellipse;whiteSpace=wrap;html=1;fillColor=#FF3333;strokeColor=none;" vertex="1" parent="1">
                    <mxGeometry x="690" y="649" width="20" height="20" as="geometry"/>
                </mxCell>
                <mxCell id="271" value="" style="ellipse;whiteSpace=wrap;html=1;fillColor=#FFCCE6;strokeColor=none;" vertex="1" parent="1">
                    <mxGeometry x="730" y="649" width="20" height="20" as="geometry"/>
                </mxCell>
                <mxCell id="272" value="" style="ellipse;whiteSpace=wrap;html=1;fillColor=#FF3333;strokeColor=none;" vertex="1" parent="1">
                    <mxGeometry x="610" y="689" width="20" height="20" as="geometry"/>
                </mxCell>
                <mxCell id="273" value="" style="ellipse;whiteSpace=wrap;html=1;fillColor=#FFCCE6;strokeColor=none;" vertex="1" parent="1">
                    <mxGeometry x="570" y="729" width="20" height="20" as="geometry"/>
                </mxCell>
                <mxCell id="274" value="" style="ellipse;whiteSpace=wrap;html=1;fillColor=#FFCCE6;strokeColor=none;" vertex="1" parent="1">
                    <mxGeometry x="890" y="609" width="20" height="20" as="geometry"/>
                </mxCell>
                <mxCell id="275" value="" style="ellipse;whiteSpace=wrap;html=1;fillColor=#FFCCE6;strokeColor=none;" vertex="1" parent="1">
                    <mxGeometry x="840" y="689" width="20" height="20" as="geometry"/>
                </mxCell>
                <mxCell id="276" value="" style="ellipse;whiteSpace=wrap;html=1;fillColor=#99CCFF;strokeColor=none;" vertex="1" parent="1">
                    <mxGeometry x="970" y="649" width="20" height="20" as="geometry"/>
                </mxCell>
                <mxCell id="277" value="" style="ellipse;whiteSpace=wrap;html=1;fillColor=#99CCFF;strokeColor=none;" vertex="1" parent="1">
                    <mxGeometry x="930" y="689" width="20" height="20" as="geometry"/>
                </mxCell>
                <mxCell id="279" value="" style="ellipse;whiteSpace=wrap;html=1;fillColor=#FFB366;strokeColor=none;" vertex="1" parent="1">
                    <mxGeometry x="1090" y="729" width="20" height="20" as="geometry"/>
                </mxCell>
                <mxCell id="280" value="" style="ellipse;whiteSpace=wrap;html=1;fillColor=#99CCFF;strokeColor=none;" vertex="1" parent="1">
                    <mxGeometry x="1210" y="729" width="20" height="20" as="geometry"/>
                </mxCell>
                <mxCell id="281" value="" style="ellipse;whiteSpace=wrap;html=1;fillColor=#FF3333;strokeColor=none;" vertex="1" parent="1">
                    <mxGeometry x="840" y="729" width="20" height="20" as="geometry"/>
                </mxCell>
                <mxCell id="282" value="" style="ellipse;whiteSpace=wrap;html=1;fillColor=#FFCCE6;strokeColor=none;" vertex="1" parent="1">
                    <mxGeometry x="610" y="769" width="20" height="20" as="geometry"/>
                </mxCell>
                <mxCell id="283" value="" style="ellipse;whiteSpace=wrap;html=1;fillColor=#FF3333;strokeColor=none;" vertex="1" parent="1">
                    <mxGeometry x="730" y="769" width="20" height="20" as="geometry"/>
                </mxCell>
                <mxCell id="284" value="" style="ellipse;whiteSpace=wrap;html=1;fillColor=#FFB366;strokeColor=none;" vertex="1" parent="1">
                    <mxGeometry x="1050" y="769" width="20" height="20" as="geometry"/>
                </mxCell>
                <mxCell id="285" value="" style="ellipse;whiteSpace=wrap;html=1;fillColor=#99CCFF;strokeColor=none;" vertex="1" parent="1">
                    <mxGeometry x="1290" y="769" width="20" height="20" as="geometry"/>
                </mxCell>
                <mxCell id="286" value="" style="ellipse;whiteSpace=wrap;html=1;fillColor=#99CCFF;strokeColor=none;" vertex="1" parent="1">
                    <mxGeometry x="1250" y="809" width="20" height="20" as="geometry"/>
                </mxCell>
                <mxCell id="287" value="" style="ellipse;whiteSpace=wrap;html=1;fillColor=#FFB366;strokeColor=none;" vertex="1" parent="1">
                    <mxGeometry x="930" y="809" width="20" height="20" as="geometry"/>
                </mxCell>
                <mxCell id="288" value="" style="ellipse;whiteSpace=wrap;html=1;fillColor=#FF3333;strokeColor=none;" vertex="1" parent="1">
                    <mxGeometry x="770" y="809" width="20" height="20" as="geometry"/>
                </mxCell>
                <mxCell id="289" value="" style="ellipse;whiteSpace=wrap;html=1;fillColor=#FFCCE6;strokeColor=none;" vertex="1" parent="1">
                    <mxGeometry x="690" y="809" width="20" height="20" as="geometry"/>
                </mxCell>
                <mxCell id="290" value="" style="ellipse;whiteSpace=wrap;html=1;fillColor=#FFCCE6;strokeColor=none;" vertex="1" parent="1">
                    <mxGeometry x="530" y="849" width="20" height="20" as="geometry"/>
                </mxCell>
                <mxCell id="291" value="" style="ellipse;whiteSpace=wrap;html=1;fillColor=#FF3333;strokeColor=none;" vertex="1" parent="1">
                    <mxGeometry x="890" y="849" width="20" height="20" as="geometry"/>
                </mxCell>
                <mxCell id="292" value="" style="ellipse;whiteSpace=wrap;html=1;fillColor=#FFB366;strokeColor=none;" vertex="1" parent="1">
                    <mxGeometry x="1010" y="849" width="20" height="20" as="geometry"/>
                </mxCell>
                <mxCell id="293" value="" style="ellipse;whiteSpace=wrap;html=1;fillColor=#99CCFF;strokeColor=none;" vertex="1" parent="1">
                    <mxGeometry x="1170" y="849" width="20" height="20" as="geometry"/>
                </mxCell>
                <mxCell id="294" value="" style="ellipse;whiteSpace=wrap;html=1;fillColor=#FFCCE6;strokeColor=none;" vertex="1" parent="1">
                    <mxGeometry x="650" y="889" width="20" height="20" as="geometry"/>
                </mxCell>
                <mxCell id="295" value="" style="ellipse;whiteSpace=wrap;html=1;fillColor=#FF3333;strokeColor=none;" vertex="1" parent="1">
                    <mxGeometry x="810" y="889" width="20" height="20" as="geometry"/>
                </mxCell>
                <mxCell id="296" value="" style="ellipse;whiteSpace=wrap;html=1;fillColor=#FFB366;strokeColor=none;" vertex="1" parent="1">
                    <mxGeometry x="970" y="889" width="20" height="20" as="geometry"/>
                </mxCell>
                <mxCell id="297" value="" style="ellipse;whiteSpace=wrap;html=1;fillColor=#99CCFF;strokeColor=none;" vertex="1" parent="1">
                    <mxGeometry x="1130" y="889" width="20" height="20" as="geometry"/>
                </mxCell>
                <mxCell id="298" value="" style="ellipse;whiteSpace=wrap;html=1;fillColor=#99CCFF;strokeColor=none;" vertex="1" parent="1">
                    <mxGeometry x="610" y="929" width="20" height="20" as="geometry"/>
                </mxCell>
                <mxCell id="299" value="" style="ellipse;whiteSpace=wrap;html=1;fillColor=#FFB366;strokeColor=none;" vertex="1" parent="1">
                    <mxGeometry x="890" y="929" width="20" height="20" as="geometry"/>
                </mxCell>
                <mxCell id="300" value="" style="ellipse;whiteSpace=wrap;html=1;fillColor=#FFCCE6;strokeColor=none;" vertex="1" parent="1">
                    <mxGeometry x="970" y="929" width="20" height="20" as="geometry"/>
                </mxCell>
                <mxCell id="301" value="" style="ellipse;whiteSpace=wrap;html=1;fillColor=#FF3333;strokeColor=none;" vertex="1" parent="1">
                    <mxGeometry x="1250" y="929" width="20" height="20" as="geometry"/>
                </mxCell>
                <mxCell id="302" value="" style="ellipse;whiteSpace=wrap;html=1;fillColor=#FF3333;strokeColor=none;" vertex="1" parent="1">
                    <mxGeometry x="1130" y="969" width="20" height="20" as="geometry"/>
                </mxCell>
                <mxCell id="303" value="" style="ellipse;whiteSpace=wrap;html=1;fillColor=#FFCCE6;strokeColor=none;" vertex="1" parent="1">
                    <mxGeometry x="1010" y="969" width="20" height="20" as="geometry"/>
                </mxCell>
                <mxCell id="304" value="" style="ellipse;whiteSpace=wrap;html=1;fillColor=#FFB366;strokeColor=none;" vertex="1" parent="1">
                    <mxGeometry x="850" y="969" width="20" height="20" as="geometry"/>
                </mxCell>
                <mxCell id="305" value="" style="ellipse;whiteSpace=wrap;html=1;fillColor=#99CCFF;strokeColor=none;" vertex="1" parent="1">
                    <mxGeometry x="690" y="969" width="20" height="20" as="geometry"/>
                </mxCell>
                <mxCell id="306" value="" style="ellipse;whiteSpace=wrap;html=1;fillColor=#99CCFF;strokeColor=none;" vertex="1" parent="1">
                    <mxGeometry x="650" y="1009" width="20" height="20" as="geometry"/>
                </mxCell>
                <mxCell id="307" value="" style="ellipse;whiteSpace=wrap;html=1;fillColor=#FFB366;strokeColor=none;" vertex="1" parent="1">
                    <mxGeometry x="730" y="1009" width="20" height="20" as="geometry"/>
                </mxCell>
                <mxCell id="308" value="" style="ellipse;whiteSpace=wrap;html=1;fillColor=#FFCCE6;strokeColor=none;" vertex="1" parent="1">
                    <mxGeometry x="1090" y="1009" width="20" height="20" as="geometry"/>
                </mxCell>
                <mxCell id="309" value="" style="ellipse;whiteSpace=wrap;html=1;fillColor=#FF3333;strokeColor=none;" vertex="1" parent="1">
                    <mxGeometry x="1170" y="1009" width="20" height="20" as="geometry"/>
                </mxCell>
                <mxCell id="310" value="" style="ellipse;whiteSpace=wrap;html=1;fillColor=#99CCFF;strokeColor=none;" vertex="1" parent="1">
                    <mxGeometry x="570" y="1049" width="20" height="20" as="geometry"/>
                </mxCell>
                <mxCell id="311" value="" style="ellipse;whiteSpace=wrap;html=1;fillColor=#FFB366;strokeColor=none;" vertex="1" parent="1">
                    <mxGeometry x="810" y="1049" width="20" height="20" as="geometry"/>
                </mxCell>
                <mxCell id="312" value="" style="ellipse;whiteSpace=wrap;html=1;fillColor=#FFCCE6;strokeColor=none;" vertex="1" parent="1">
                    <mxGeometry x="930" y="1049" width="20" height="20" as="geometry"/>
                </mxCell>
                <mxCell id="313" value="" style="ellipse;whiteSpace=wrap;html=1;fillColor=#FF3333;strokeColor=none;" vertex="1" parent="1">
                    <mxGeometry x="1290" y="1049" width="20" height="20" as="geometry"/>
                </mxCell>
                <mxCell id="314" value="" style="ellipse;whiteSpace=wrap;html=1;fillColor=#99CCFF;strokeColor=none;" vertex="1" parent="1">
                    <mxGeometry x="530" y="1089" width="20" height="20" as="geometry"/>
                </mxCell>
                <mxCell id="315" value="" style="ellipse;whiteSpace=wrap;html=1;fillColor=#FFB366;strokeColor=none;" vertex="1" parent="1">
                    <mxGeometry x="770" y="1089" width="20" height="20" as="geometry"/>
                </mxCell>
                <mxCell id="316" value="" style="ellipse;whiteSpace=wrap;html=1;fillColor=#FFCCE6;strokeColor=none;" vertex="1" parent="1">
                    <mxGeometry x="1050" y="1089" width="20" height="20" as="geometry"/>
                </mxCell>
                <mxCell id="317" value="" style="ellipse;whiteSpace=wrap;html=1;fillColor=#FF3333;strokeColor=none;" vertex="1" parent="1">
                    <mxGeometry x="1210" y="1089" width="20" height="20" as="geometry"/>
                </mxCell>
                <mxCell id="318" value="" style="ellipse;whiteSpace=wrap;html=1;fillColor=#FFB366;strokeColor=none;" vertex="1" parent="1">
                    <mxGeometry x="690" y="1129" width="20" height="20" as="geometry"/>
                </mxCell>
                <mxCell id="319" value="" style="ellipse;whiteSpace=wrap;html=1;fillColor=#99CCFF;strokeColor=none;" vertex="1" parent="1">
                    <mxGeometry x="810" y="1129" width="20" height="20" as="geometry"/>
                </mxCell>
                <mxCell id="320" value="" style="ellipse;whiteSpace=wrap;html=1;fillColor=#FF3333;strokeColor=none;" vertex="1" parent="1">
                    <mxGeometry x="1010" y="1289" width="20" height="20" as="geometry"/>
                </mxCell>
                <mxCell id="321" value="" style="ellipse;whiteSpace=wrap;html=1;fillColor=#FFCCE6;strokeColor=none;" vertex="1" parent="1">
                    <mxGeometry x="1170" y="1129" width="20" height="20" as="geometry"/>
                </mxCell>
                <mxCell id="322" value="" style="ellipse;whiteSpace=wrap;html=1;fillColor=#FFCCE6;strokeColor=none;" vertex="1" parent="1">
                    <mxGeometry x="1210" y="1169" width="20" height="20" as="geometry"/>
                </mxCell>
                <mxCell id="323" value="" style="ellipse;whiteSpace=wrap;html=1;fillColor=#FF3333;strokeColor=none;" vertex="1" parent="1">
                    <mxGeometry x="930" y="1169" width="20" height="20" as="geometry"/>
                </mxCell>
                <mxCell id="324" value="" style="ellipse;whiteSpace=wrap;html=1;fillColor=#99CCFF;strokeColor=none;" vertex="1" parent="1">
                    <mxGeometry x="890" y="1169" width="20" height="20" as="geometry"/>
                </mxCell>
                <mxCell id="325" value="" style="ellipse;whiteSpace=wrap;html=1;fillColor=#FFB366;strokeColor=none;" vertex="1" parent="1">
                    <mxGeometry x="650" y="1169" width="20" height="20" as="geometry"/>
                </mxCell>
                <mxCell id="326" value="" style="ellipse;whiteSpace=wrap;html=1;fillColor=#FFB366;strokeColor=none;" vertex="1" parent="1">
                    <mxGeometry x="530" y="1209" width="20" height="20" as="geometry"/>
                </mxCell>
                <mxCell id="327" value="" style="ellipse;whiteSpace=wrap;html=1;fillColor=#99CCFF;strokeColor=none;" vertex="1" parent="1">
                    <mxGeometry x="850" y="1209" width="20" height="20" as="geometry"/>
                </mxCell>
                <mxCell id="328" value="" style="ellipse;whiteSpace=wrap;html=1;fillColor=#FF3333;strokeColor=none;" vertex="1" parent="1">
                    <mxGeometry x="970" y="1209" width="20" height="20" as="geometry"/>
                </mxCell>
                <mxCell id="329" value="" style="ellipse;whiteSpace=wrap;html=1;fillColor=#FFCCE6;strokeColor=none;" vertex="1" parent="1">
                    <mxGeometry x="1290" y="1209" width="20" height="20" as="geometry"/>
                </mxCell>
                <mxCell id="330" value="" style="ellipse;whiteSpace=wrap;html=1;fillColor=#FFB366;strokeColor=none;" vertex="1" parent="1">
                    <mxGeometry x="610" y="1249" width="20" height="20" as="geometry"/>
                </mxCell>
                <mxCell id="331" value="" style="ellipse;whiteSpace=wrap;html=1;fillColor=#99CCFF;strokeColor=none;" vertex="1" parent="1">
                    <mxGeometry x="770" y="1249" width="20" height="20" as="geometry"/>
                </mxCell>
                <mxCell id="332" value="" style="ellipse;whiteSpace=wrap;html=1;fillColor=#FF3333;strokeColor=none;" vertex="1" parent="1">
                    <mxGeometry x="1090" y="1249" width="20" height="20" as="geometry"/>
                </mxCell>
                <mxCell id="333" value="" style="ellipse;whiteSpace=wrap;html=1;fillColor=#FFCCE6;strokeColor=none;" vertex="1" parent="1">
                    <mxGeometry x="1130" y="1249" width="20" height="20" as="geometry"/>
                </mxCell>
                <mxCell id="334" value="" style="ellipse;whiteSpace=wrap;html=1;fillColor=#FFCCE6;strokeColor=none;" vertex="1" parent="1">
                    <mxGeometry x="1250" y="1289" width="20" height="20" as="geometry"/>
                </mxCell>
                <mxCell id="335" value="" style="ellipse;whiteSpace=wrap;html=1;fillColor=#FF3333;strokeColor=none;" vertex="1" parent="1">
                    <mxGeometry x="1050" y="1129" width="20" height="20" as="geometry"/>
                </mxCell>
                <mxCell id="336" value="" style="ellipse;whiteSpace=wrap;html=1;fillColor=#99CCFF;strokeColor=none;" vertex="1" parent="1">
                    <mxGeometry x="730" y="1289" width="20" height="20" as="geometry"/>
                </mxCell>
                <mxCell id="337" value="" style="ellipse;whiteSpace=wrap;html=1;fillColor=#FFB366;strokeColor=none;" vertex="1" parent="1">
                    <mxGeometry x="570" y="1289" width="20" height="20" as="geometry"/>
                </mxCell>
                <mxCell id="339" value="" style="ellipse;whiteSpace=wrap;html=1;fillColor=#99CCFF;strokeColor=none;" vertex="1" parent="1">
                    <mxGeometry x="1050" y="609" width="20" height="20" as="geometry"/>
                </mxCell>
            </root>
        </mxGraphModel>
    </diagram>
</mxfile>